<?xml version="1.0" encoding="utf-8"?>
<!-- Generator: Adobe Illustrator 15.0.0, SVG Export Plug-In  -->
<!DOCTYPE svg PUBLIC "-//W3C//DTD SVG 1.1//EN" "http://www.w3.org/Graphics/SVG/1.1/DTD/svg11.dtd" [
	<!ENTITY ns_flows "http://ns.adobe.com/Flows/1.0/">
]>
<svg version="1.1"
	 xmlns="http://www.w3.org/2000/svg" xmlns:xlink="http://www.w3.org/1999/xlink" xmlns:a="http://ns.adobe.com/AdobeSVGViewerExtensions/3.0/"
	 x="0px" y="0px" width="47px" height="47px" viewBox="-0.896 -0.896 47 47"
	 overflow="visible" enable-background="new -0.896 -0.896 47 47" xml:space="preserve">
<defs>
</defs>
<path fill="#FFFFFF" d="M18.014,12.387c-1.795-0.054-3.002,1.751-2.689,4.108c0.311,2.359,2.016,4.006,3.812,4.062
	c1.795,0.051,2.826-1.466,2.518-3.825C21.346,14.376,19.809,12.441,18.014,12.387z"/>
<path fill="#FFFFFF" d="M18.768,25.382c-2.676-0.031-4.941,1.688-4.941,3.685c0,2.032,1.932,3.726,4.607,3.726
	c3.762,0,5.072-1.589,5.072-3.626c0-0.244-0.029-0.486-0.086-0.717c-0.295-1.151-1.465-1.782-2.918-2.793
	C19.975,25.488,19.393,25.388,18.768,25.382z"/>
<path fill="#FFFFFF" d="M22.604,0C10.121,0,0,10.122,0,22.603c0,12.487,10.121,22.605,22.604,22.605
	c12.484,0,22.604-10.119,22.604-22.605C45.207,10.122,35.088,0,22.604,0z M24.33,16.633c0,1.474-0.814,2.66-1.967,3.56
	c-1.127,0.878-1.338,1.245-1.338,1.994c0,0.638,1.344,1.586,1.961,2.05c2.152,1.614,2.588,2.629,2.588,4.647
	c0,2.518-2.713,5.021-7.127,5.021c-3.869,0-7.137-1.573-7.137-4.091c0-2.556,2.709-5.222,6.58-5.222
	c0.422,0,0.809-0.012,1.209-0.012c-0.529-0.514-0.957-0.957-0.957-1.735c0-0.463,0.145-0.903,0.354-1.301
	c-0.211,0.015-0.426,0.03-0.646,0.03c-3.18,0-5.031-2.235-5.031-5.038c0-2.741,2.818-5.236,6.199-5.236c1.742,0,6.662,0,6.662,0
	l-1.49,1.565h-1.748C23.676,13.573,24.33,15.026,24.33,16.633z M33.898,16.222h-3.074v3.071h-1.537v-3.071h-3.072v-1.537h3.072
	v-3.074h1.537v3.074h3.074V16.222z"/>
</svg>
