<?xml version="1.0" encoding="utf-8"?>
<!-- Generator: Adobe Illustrator 15.0.0, SVG Export Plug-In  -->
<!DOCTYPE svg PUBLIC "-//W3C//DTD SVG 1.1//EN" "http://www.w3.org/Graphics/SVG/1.1/DTD/svg11.dtd" [
	<!ENTITY ns_flows "http://ns.adobe.com/Flows/1.0/">
]>
<svg version="1.1"
	 xmlns="http://www.w3.org/2000/svg" xmlns:xlink="http://www.w3.org/1999/xlink" xmlns:a="http://ns.adobe.com/AdobeSVGViewerExtensions/3.0/"
	 x="0px" y="0px" width="47px" height="47px" viewBox="-0.896 -0.896 47 47"
	 overflow="visible" enable-background="new -0.896 -0.896 47 47" xml:space="preserve">
<defs>
</defs>
<path fill="#FFFFFF" d="M22.604,0C10.12,0,0,10.122,0,22.604c0,12.485,10.12,22.604,22.604,22.604
	c12.484,0,22.604-10.119,22.604-22.604C45.207,10.122,35.088,0,22.604,0z M31.592,17.997c0.009,0.198,0.014,0.397,0.014,0.599
	c0,6.128-4.665,13.194-13.195,13.194c-2.619,0-5.057-0.766-7.109-2.083c0.365,0.041,0.733,0.062,1.107,0.062
	c2.174,0,4.172-0.739,5.758-1.983c-2.027-0.038-3.74-1.379-4.33-3.22c0.282,0.053,0.572,0.083,0.872,0.083
	c0.424,0,0.833-0.058,1.22-0.162c-2.119-0.428-3.719-2.302-3.719-4.548c0-0.019,0-0.04,0-0.058c0.627,0.348,1.341,0.555,2.102,0.58
	c-1.244-0.83-2.062-2.252-2.062-3.86c0-0.851,0.229-1.647,0.629-2.332c2.285,2.806,5.703,4.652,9.557,4.845
	c-0.078-0.338-0.119-0.691-0.119-1.057c0-2.561,2.076-4.636,4.637-4.636c1.334,0,2.539,0.562,3.386,1.463
	c1.056-0.208,2.048-0.593,2.944-1.126c-0.348,1.084-1.082,1.991-2.038,2.564c0.938-0.108,1.832-0.36,2.662-0.727
	C33.285,16.525,32.498,17.342,31.592,17.997z"/>
</svg>
